<?xml version="1.0" encoding="iso-8859-1"?>
<!-- Generator: Adobe Illustrator 19.0.0, SVG Export Plug-In . SVG Version: 6.00 Build 0)  -->
<svg version="1.1" id="Capa_1" xmlns="http://www.w3.org/2000/svg" xmlns:xlink="http://www.w3.org/1999/xlink" x="0px" y="0px"
	 viewBox="0 0 512 512" style="enable-background:new 0 0 512 512;" xml:space="preserve">
<g>
	<g>
		<path d="M405.034,202.711v-53.679C405.034,66.856,338.177,0,256,0S106.967,66.856,106.967,149.033v53.679H52.315V512h407.369
			V202.711H405.034z M256,30c65.635,0,119.033,53.398,119.033,119.033v53.679h-30v-53.678C345.034,99.94,305.094,60,256,60
			c-49.093,0-89.033,39.94-89.033,89.033v53.678h-30v-53.678h0C136.967,83.398,190.365,30,256,30z M315.034,149.033v53.678H196.967
			v-53.678C196.967,116.482,223.45,90,256,90C288.552,90,315.034,116.482,315.034,149.033z M82.315,482V232.711h347.369V482H82.315z
			"/>
	</g>
</g>
<g>
	<g>
		<path d="M306.464,331.587c0-27.826-22.638-50.463-50.464-50.463s-50.464,22.638-50.464,50.463
			c0,13.558,5.364,26.272,14.721,35.627l-14.126,66.374h99.738l-14.126-66.374C301.099,357.859,306.464,345.145,306.464,331.587z
			 M267.05,348.803l-8.703,5.606l10.466,49.178h-25.625l10.466-49.178l-8.703-5.606c-5.895-3.797-9.414-10.233-9.414-17.216
			c-0.001-11.284,9.179-20.463,20.463-20.463s20.464,9.18,20.464,20.463C276.464,338.57,272.945,345.006,267.05,348.803z"/>
	</g>
</g>
<g>
</g>
<g>
</g>
<g>
</g>
<g>
</g>
<g>
</g>
<g>
</g>
<g>
</g>
<g>
</g>
<g>
</g>
<g>
</g>
<g>
</g>
<g>
</g>
<g>
</g>
<g>
</g>
<g>
</g>
</svg>
